<?xml version="1.0" encoding="UTF-8" standalone="no"?>
<!-- Created with Inkscape (http://www.inkscape.org/) and export_objects.py -->

<svg
   version="1.1"
   id="svg1"
   width="16"
   height="16"
   viewBox="0 0 16 16"
   sodipodi:docname="inkstitch-params-symbolic.svg"
   inkscape:version="1.3.2 (091e20e, 2023-11-25, custom)"
   xmlns:inkscape="http://www.inkscape.org/namespaces/inkscape"
   xmlns:sodipodi="http://sodipodi.sourceforge.net/DTD/sodipodi-0.dtd"
   xmlns="http://www.w3.org/2000/svg"
   xmlns:svg="http://www.w3.org/2000/svg">
  <rect
     style="fill:#ffffff;fill-rule:evenodd;stroke:#000000;stroke-width:0.999997;stroke-linecap:round;stroke-linejoin:round;stroke-dasharray:none;fill-opacity:0"
     id="rect2"
     width="12"
     height="12"
     x="2"
     y="2"
     ry="2.0823145" />
  <path
     d="m 7.554194,8.3287808 v 2.1261722 q 0,0.688987 0.150716,0.855851 0.2045432,0.23684 0.6190122,0.23684 h 0.2799012 v 0.19916 H 5.4764661 v -0.19916 h 0.2745184 q 0.4629135,0 0.6620739,-0.301432 0.1076543,-0.166864 0.1076543,-0.791259 V 5.739695 q 0,-0.6889875 -0.1453333,-0.8558517 Q 6.1654536,4.6470039 5.7509845,4.6470039 H 5.4764661 V 4.4478434 h 2.6752092 q 0.9796541,0 1.544839,0.2045432 0.5651847,0.1991604 0.9527407,0.678222 0.387555,0.4790617 0.387555,1.1357529 0,0.8935306 -0.592098,1.453333 -0.5867157,0.5598023 -1.663259,0.5598023 -0.2637531,0 -0.5705678,-0.037679 Q 7.9040704,8.4041388 7.554194,8.3287808 Z m 0,-0.3068148 q 0.2852839,0.053827 0.5059752,0.080741 0.2206913,0.026913 0.37679,0.026913 0.5598023,0 0.963506,-0.4306171 0.4090861,-0.4359999 0.4090861,-1.1249874 0,-0.4736789 -0.1937776,-0.8773826 Q 9.421996,5.2875469 9.0667368,5.0883865 8.7114777,4.8838433 8.2593296,4.8838433 q -0.2745184,0 -0.7051356,0.1022716 z"
     id="text13"
     style="font-size:11.0238px;line-height:0.9;font-family:'Times New Roman';-inkscape-font-specification:'Times New Roman, Normal';text-align:center;text-orientation:upright;text-anchor:middle;fill-rule:evenodd;stroke-width:0.500001;stroke-linecap:round;stroke-linejoin:round;fill:#000000;fill-opacity:1"
     aria-label="P" />
  <defs
     id="defs1" />
  <sodipodi:namedview
     objecttolerance="10"
     gridtolerance="10"
     guidetolerance="10"
     id="namedview"
     showgrid="true"
     inkscape:zoom="19.209396"
     inkscape:cx="9.0580672"
     inkscape:cy="12.858291"
     inkscape:window-width="1244"
     inkscape:window-height="668"
     inkscape:window-x="4170"
     inkscape:window-y="83"
     inkscape:window-maximized="0"
     inkscape:current-layer="svg1"
     pagecolor="#ffffff"
     bordercolor="#000000"
     borderopacity="0.25"
     inkscape:showpageshadow="2"
     inkscape:pageopacity="0.0"
     inkscape:pagecheckerboard="0"
     inkscape:deskcolor="#d1d1d1">
    <inkscape:grid
       type="xygrid"
       id="grid"
       originx="0"
       originy="0"
       spacingy="1"
       spacingx="1"
       units="px"
       visible="true" />
  </sodipodi:namedview>
  <path
     style="fill:none;fill-rule:evenodd;stroke:#000000;stroke-width:0.5;stroke-linecap:round;stroke-linejoin:round;stroke-dasharray:none"
     d="M 5,1 V 3.5919923"
     id="path2" />
  <path
     style="fill:none;fill-rule:evenodd;stroke:#000000;stroke-width:0.5;stroke-linecap:round;stroke-linejoin:round;stroke-dasharray:none"
     d="M 8.25,1 V 3.5919923"
     id="path3" />
  <path
     style="fill:none;fill-rule:evenodd;stroke:#000000;stroke-width:0.5;stroke-linecap:round;stroke-linejoin:round;stroke-dasharray:none"
     d="M 11.75,1 V 3.5919923"
     id="path4" />
  <g
     id="g7">
    <path
       style="fill:none;fill-rule:evenodd;stroke:#000000;stroke-width:0.5;stroke-linecap:round;stroke-linejoin:round;stroke-dasharray:none"
       d="m 5,12.704004 v 2.591992"
       id="path5" />
    <path
       style="fill:none;fill-rule:evenodd;stroke:#000000;stroke-width:0.5;stroke-linecap:round;stroke-linejoin:round;stroke-dasharray:none"
       d="m 8.25,12.704004 v 2.591992"
       id="path6" />
    <path
       style="fill:none;fill-rule:evenodd;stroke:#000000;stroke-width:0.5;stroke-linecap:round;stroke-linejoin:round;stroke-dasharray:none"
       d="m 11.75,12.704004 v 2.591992"
       id="path7" />
  </g>
  <g
     id="g10"
     transform="rotate(-90,2,14)">
    <path
       style="fill:none;fill-rule:evenodd;stroke:#000000;stroke-width:0.5;stroke-linecap:round;stroke-linejoin:round;stroke-dasharray:none"
       d="m 5,12.704004 v 2.591992"
       id="path8" />
    <path
       style="fill:none;fill-rule:evenodd;stroke:#000000;stroke-width:0.5;stroke-linecap:round;stroke-linejoin:round;stroke-dasharray:none"
       d="m 8.25,12.704004 v 2.591992"
       id="path9" />
    <path
       style="fill:none;fill-rule:evenodd;stroke:#000000;stroke-width:0.5;stroke-linecap:round;stroke-linejoin:round;stroke-dasharray:none"
       d="m 11.75,12.704004 v 2.591992"
       id="path10" />
  </g>
  <g
     id="g13"
     transform="rotate(-90,8,8)">
    <path
       style="fill:none;fill-rule:evenodd;stroke:#000000;stroke-width:0.5;stroke-linecap:round;stroke-linejoin:round;stroke-dasharray:none"
       d="m 5,12.704004 v 2.591992"
       id="path11" />
    <path
       style="fill:none;fill-rule:evenodd;stroke:#000000;stroke-width:0.5;stroke-linecap:round;stroke-linejoin:round;stroke-dasharray:none"
       d="m 8.25,12.704004 v 2.591992"
       id="path12" />
    <path
       style="fill:none;fill-rule:evenodd;stroke:#000000;stroke-width:0.5;stroke-linecap:round;stroke-linejoin:round;stroke-dasharray:none"
       d="m 11.75,12.704004 v 2.591992"
       id="path13" />
  </g>
</svg>
